<svg xmlns="http://www.w3.org/2000/svg" viewBox="0 0 500 500">
  <defs>
    <linearGradient id="primary-gradient" x1="1" y1="1" x2="0" y2="0">
      <stop offset="0" stop-color="blue"/>
      <stop offset="1" stop-color="#00c9ff"/>
    </linearGradient>
  </defs>
  
  <!-- Cloud placed at the top right -->
  <g transform="translate(315, 80) scale(0.25)">
    <path fill="url(#primary-gradient)" d="M501.675,311.617c0-62.804-46.1-114.845-106.307-124.133 c-16.384-64.772-75.051-112.711-144.913-112.711c-70.714,0-129.958,49.114-145.493,115.088 c-54.393,13.796-94.638,63.076-94.638,121.757c0,69.37,56.24,125.611,125.61,125.611h241.689v-0.021 C446.275,436.373,501.675,380.465,501.675,311.617z"/>
  </g>

  <!-- Letter A Logo placed gracefully, avoiding overlap -->
  <g transform="translate(65, 130) scale(0.8)">
    <path fill="url(#primary-gradient)" d="M207.36,23.02c11.39,7.01,19.39,17.08,24.06,30.18l92.7,270.71h-77.4l-72.13-237.01c-.6-2.06-1.39-3.45-2.42-4.16-1.03-.75-2.24-1.1-3.7-1.1s-2.7.43-3.74,1.32c-1,.85-1.81,2.17-2.38,3.95l-70.85,237.01H12.35L105.48,53.2c4.98-13.7,13.06-23.88,24.27-30.6,11.25-6.69,24.13-10.04,38.72-10.04s27.54,3.49,38.9,10.46Z"/>
    <path fill="url(#primary-gradient)" d="M168.4,204.14l10.83,26.75,26.75,10.83c.15.06.15.26,0,.32l-26.75,10.83-10.83,26.75c-.06.15-.26.15-.32,0l-10.83-26.75-26.75-10.83c-.15-.06-.15-.26,0-.32l26.75-10.83,10.83-26.75c.06-.15.26-.15.32,0Z"/>
  </g>
</svg>
